<mxfile host="app.diagrams.net" agent="Mozilla/5.0 (Windows NT 10.0; Win64; x64) AppleWebKit/537.36 (KHTML, like Gecko) Chrome/130.0.0.0 Safari/537.36" version="24.7.12">
  <diagram name="第 1 页" id="wh_UNcsL-Dm0x3IPhktH">
    <mxGraphModel dx="1709" dy="893" grid="1" gridSize="10" guides="1" tooltips="1" connect="1" arrows="1" fold="1" page="1" pageScale="1" pageWidth="827" pageHeight="1169" math="0" shadow="0">
      <root>
        <mxCell id="0" />
        <mxCell id="1" parent="0" />
        <mxCell id="MC7g_-9hAJX0nTkmb-Ls-1" value="diffusion backbone" style="rounded=0;whiteSpace=wrap;html=1;" vertex="1" parent="1">
          <mxGeometry x="240" y="483.44000000000005" width="120" height="60" as="geometry" />
        </mxCell>
        <mxCell id="MC7g_-9hAJX0nTkmb-Ls-39" style="edgeStyle=orthogonalEdgeStyle;rounded=0;orthogonalLoop=1;jettySize=auto;html=1;exitX=1;exitY=0.5;exitDx=0;exitDy=0;" edge="1" parent="1" source="MC7g_-9hAJX0nTkmb-Ls-3">
          <mxGeometry relative="1" as="geometry">
            <mxPoint x="130" y="858" as="targetPoint" />
          </mxGeometry>
        </mxCell>
        <mxCell id="MC7g_-9hAJX0nTkmb-Ls-3" value="" style="shape=image;verticalLabelPosition=bottom;labelBackgroundColor=default;verticalAlign=top;aspect=fixed;imageAspect=0;image=data:image/png,iVBORw0KGgoAAAANSUhEUgAAAKgAAAC7CAYAAADxCdWBAAAAAXNSR0IArs4c6QAAAARnQU1BAACxjwv8YQUAAAAJcEhZcwAAGdYAABnWARjRyu0AACPwSURBVHhe7Z0JfBRF2sbfXEDInQBJOCLhlPuQG+UWRblBlBVRQNaVDwQB1xVYRXGRBRFBLhEURIRVUFhQELldBERBQOQ+khBIIIQrNwn99VNTPemZ9JzJzPSE+vNrpqq6JzPT88xb11tv+Ugy5CR4ajGeLijl+Pj4sKM4OCTQo0eP0tSpUyk1NZWCg4MpKiqKgoKC+FmBwJTMzEzKyMig69evU2xsLPXo0YNGjBjBz9qHTYGmpaXRsGHDqFu3bjRw4ECqUqUKPyMQOM7s2bPpiy++oJ07d1J4eDgvtYxVgU6ZMoX27NlDCxYsoEaNGvFSgaB43Lt3jx555BHq3r07vfXWW7xUG1/+WIS1a9dSpUqVmECFOAUlia+vL+3du5c1D7t27cpLtdG0oDVr1qRvv/2WGjduzEsEAtdRt25dOnXqFM+ZUkSgv/zyC5UpU4aaNm3KSwQC1wLNjRo1in799VdeUoiJQDdt2sSq9JkzZ/ISgcA9ZGVl0f79+6lLly68xICJQCtUqMB67QKBJ8CwJYak1Bg7Se+++y5t2bKF5wQC94N+z5w5c3jOgNGCtmvXjn7++WdWKPBuVq9ezR7xnT7wwAMs7S00a9aMDh8+zHMyEChISEjgKcdYtGiRJPf6pfDwcCk2NlaqV6+eNGjQIH5WkkaPHs2OK1eu8BLXsWvXLuPreZp33nlHat26NbsvoaGhUp06dSS5IyCdPXuWX+E68LXiWLZsGS/xHk6fPi3NmzeP5+TPgv+2b9/OMo4SEBDAbgQee/ToIVWvXt14cxSU/B9//MFLXMfs2bOLvL4nUN4Djvr160vdunUz5qOjo/lVrkN5LW8UKPD19eUpLtDnnnuOZRxFuRFXr17lJZKUmJgoPfvssyyt/mLk6oblc3Jy2KNyLF++XOrbty+7fvfu3cZyBSW/bds2XiJJJ0+eZH8Plrtu3brSsGHDpMzMTJZXXk/9d5T0b7/9xvL4sajPAyV/69Yt6aWXXpI6derEz0jSq6++yqxh1apVpZYtW0rTpk3jZ4oybtw443t45ZVXeKkkXbp0SRoyZIhRoPgMymsq96B3797S2rVr2WvXrl1bqlatmtSwYUPpjTfeYM9RUJ4Ha4z3U6NGDWn+/Pn8bOH3snTpUnZvmjRpIj300EPSunXr+BX6Bp9bgQkUVZAzKDcCB258//79Jbn9w89KUvPmzY3nUcUhf/fuXZPnKQf49NNPTfJAyX/22WcsjxutlLVt21bq3LkzS584cUKS21vGc3gtHEApkzuBLI+mgFKmoOTVB4BAkG7VqpU0c+ZM47mVK1ey8+Yo5/FjscZPP/1kvFY5KlSoII0fP14KDg5mRgM/9KCgIHbOx4d1Fxjq58THxxvTPXv2LHJeqeWUwxuYMGECT8mfhf3n5Btv1KiRyYdXDlg1BaVMXcWrr0V7A790YI9AlfyKFStYHnz44YdScnKyxSpeKbNHoBMnTpSWLFkizZ07V7p3756xHG0jHGjKII/mjBbK9bDCAG1Q9REZGcnK1QJV7gFeMzU1VSooKGA/uO+++45Za+U6BSV/7do1lld+pMo1ShoWHH8rLS3N5LzewfepwN6xs28cXyDaOTExMcYbYH4jlLwlgapxRKBalIRA1eB6pVzr0EI5hyaIOq8+gFqgalJSUkxqCfWhYJ7fuXOnSZmSVrdB1ef1DgyEgkVnEXuYPHkyDR8+nOQeOj45bd26lZ8hunHjBk8ZyM3N5SnLOOLcKjcVeIooPz/fJG+J33//nafsA84yCnI72+RISEjgZ0yR247sEUN28g+B3Rcc9iL/2EluK5P8Y2X+lPY8V25b8lQpRL4BTv+y8LwqVaqw4ZMFCxawHivK1H9PyXfo0EFav349q3KUMvV14Pjx48byfv36SX369DHmzS0o2rToUGzevJlZcFSJqPaV8xs3bmSvp34O2tro8KjbbQrmeQWlvGnTpszq4e+iI4TX1yI9Pd34HBy4FpZMXQYsWVClbNWqVazDiTap+XVKHvdk+vTpxnz37t1NzpcGC8resbNvXN1rVo4GDRqwL1EBX6z6fFZWlknenK5duxrPtWnTxphWBCpbS9YbVspxoAOhjOOavx44c+aMSdmIESNMzgPzvAI6derhM+UYMGAAv6IoBw4c0GyfR0RESHKNw66xJNDXXnvN5Dl/+ctfilyn5PGDU9IQqoJSVhoEyrqGqFrlB/n9O865c+fo7NmzrDqSLSg9+OCD/Ewhhw4dYs0A+QtisxuyteNniOrVq8dThfz3v/9lHlWPP/648dpq1aqxZSYK+JtJSUksDZ9C83Pq1wP/+9//WLWM9wj/Vlm0rFx5feV1tN4PkNvQ7MDrYPmC3E7kZywjW0A6ePAg+yy4L0r1D9DkOX/+PEubvyaaIrin8o+dnTN/b0pTCE2bH3/8kSpXrmziGqlcj1mk8uXLs7Stz6cnPvnkExo5ciRLF1ugAvejCLS0fmdqgRarkyTwDM899xw77geEQL2Qzz//nB33A0KgAl0jBCrQNUKgAl0jBCrQNUKgAl0jBCooFj/88AMNGDCAqlevThUrVmQTIceOHWPnsEJT7Z/hFBio5w8CgUNMmjSJaQd+CfCJgC/Fhg0bmEf83r172Tk4kjtKic3FC+5PFi9ezDSDIzs7m5cWghUWynlnKDF3O8H9yd/+9jf2iEAf5cqVY2k1qOpBt27d2GNxEAIVOMTQoUPZ4//93//Rk08+ydJaIEwnYi0UFyFQgd28//77tHLlSuYlNX/+fF5qmdatW/OU8wiBCuzm9ddfZ4/2RKBZtGgRTxUPIVCB3SDwLNDy+TWnV69ePFU8hD+og2Rl59LNO1mULT8W3JPkLw3HPcrLz6fcuwX8Kmd+94YvXxvD3/OVH3x8fah82QCqFhtFIeWLdlBcibv8UIXDspNcvHSNcvMsL86DQCFgV91JP18/+Ueh/AiIQoPKUYPaVXnO9VgTaIsWLahs2bIUEBDArsMixu+//55CQ0P5FfYjBOogael36PrNOzxnm1sZsK6FQiopzAWqULNaJaoU5bgQHMUeC6pcU1BQwEJ9O4PwqHcQR8QJwoLLGr8od3Au6SpPeRZFuBhiclac5giB2uDU+cs85RgRIYHk60aRHvzjAk+5DlvVtTKs9PXXX7PHkkAI1AqXr5oGn3CU0GD3dWLy8wso9fptnnMN2NsIPPPMM+xRDYagsIIVtG3blj2WBEKgVriTkc1TzuFOCwrOy1W9K/sSzZs3p5ycHLbZAZowkZGRbEcYPz8/NniP13755Zf51YVcunSJvvzySzp+/DgvsR8hUBfj6+tekaakudaKoqeONft//vknrVmzhlatWkW3bt1iu3SAhQsXskc1ffv2pcDAQHr++ed5if0IgVogI8t2LCl7CCxbhqfcw6XUdJ5yLQgAgZ3i2rRpYxI0wxzEmMI2M/369TMGy3AEIVALpKbd5CkDvx8+TC+PfJ7enTrZoWq0bIAfT7kHtEW1eOmll6hPnz6sunUniO6CJgAiw8yYMYOX2o8QqAXUX3RCwgV6YchA2rljG32xcjl1eaQlP1NyoL1aMTyQqlUKpSoVQ8ivBJsGr776Ki1ZsoSFFILlsyfSYEkByzlv3jzWNFCaAY4gBuotoB5e6tiuOduCXE39+g15yjYFfA7bEgH+fppt1bvyj8QQQ9eAj/xPsmOeKrCcabPCPOwk4kpp7epW0sByPvroo8y5BJYbsabQXrWFmEmyA7VAH+3cjpISTeOB7txzkMoFGgJz2eJmRiZPFSWkfFmKibK8535Wzl1KvmaYKPDz9bUpdtCiYTxr923bto0Nmr/xxhsm8VP/9a9/0aRJk3jOdcB3NCQkhAnzvffeY0JF2hZCoHYAgSZcOE8bN66nXr360tMDe9HNm4Z2aacuXalqlWoUJrevxoydyMqskX47i6eK8uADUTxlAI4n5rMwF67coty8fItTnSBRbob8vGcX5RfkUftWzahOnTpsYyx4HqEdqHgXITLf5cvOTT44A7bWRJMC229red9rIQRqBYQ0nDZtGoVHVaInevbjpQY2fLuO+vQbwHNEX//nS3r0sSdp+za5CktKpLGvvsbPFHJPvq8372iPp0aFlZPbnYXWU0ucCney8ijlehYTaMrlS/T9pvWydQqlipWiqX7DRlQpujK7DkJNv3yWevbsyTomChAJ2oEox1INPSMEagHskY84pxi3u3s3n67fNu1M7P1pN7V/pCPPGVi1cgXFVo6lTp270ZerPpdbiffo2eeG87NyFZ2bRzm5+TxnSuUKwRQaVJalrYrzzh3avHkznT5/SRZlOEVWiKKWbR7mZw38cfQw/XZwH7Vq0ZKGPz+YlxrIzs5m45AgJSWF/QirVnWfF5SjCIGqQBDZFStW0AsvvEDR0dHM0ihcvWFq+WCd4h6I5zlT1n/zNXXv8SSVl9ulvxzYT8eO/E7V4+OpWetH+BVFKVvGn+Jjw3jOAGZbEJQWbbfw8HBWVSPgrkKGbEkv8TYpWLJgDsXFVafHexmsfZsmNYs4qvTu3Zv14BUWLFjA1hTpFSFQGXxeLOpCj7ZHjx6sd2l+D67dzJbLeEYmMyuLgnjEYi2+Wr2KdZx69zWI5ezZM/TtN99Qj159qHKVOFZmTq2q4bRi+XK6ffs2Ww2JKMzYrxJRmS0BkS74+BPKy8mjgYOfMwoysFwANX3QdG9ObHOdkZFhsiEE+Oc//8maMnrkvhfom2++yeaOR4wYwao/zC9rkXe3QO6B5/GcfZw+fZKuyJ2Qjp26UE7eXdYL3//zHvrzj6M0dPjL5O/vR6dPHKf9+/ZQSGgYBQeH0NBn+lFYmKkltcTJkydpw4YN1PXxfhQcbtrBatmwhvz3TZsJAwcOZE0Xc9Qi0Bv3pUAx5QZLgrXaCM8Cy2LPgDV6z7cybW9xY86aL7+U259ZcjUdRRfOn6XYmCoUGh5Gd27dltuUt5nlU4D9i68cTmUszDphiGjWrFnUqVMnY8x9oK7um9WrTuXK+rO0Aj4vfnwVKlTgJaZgTr1WrVo8px/uK4Fi/heeNNjPCb1adEZQnTryedVVPZ6nVKlaYA+lr9asJP+AQAqUmwMZshgHD32RnzVw6+YN2rNzK6v2H2plcE2zJNJv5CYCBNq/f3+2nMIcDEHhrT1Uv7qhQAVmcTDUZAl0BtevX89z+kGXAsVwzD1soWT5u5fVwR/N0XjOtHfelnvXVehFuRoHeXl5ssXUrsrtISsnnzKy71JSYiJVizO0Jw8d+pV+2beXIqKiKDgkjDp36Uo+vgGUnWtqcbdu2Ujt2neUrynq8Jtw8Txt3/Idde/ZR+5Zx1ENWaTJlxJp+/btbJcTe3rbEK6Ww8b169cpSn5v1hg7dizNnTuX5/SBbgSKabzLqTfkajSP8gsMMyQQat7dfDY0g7Sj7Ny2hVKvXKYBzwyVvzh/Zu1iIstTWAk4Dx85doKWL/9U7szEUnRsLMXXrEkNGxh62Lh/tzPzLA6kb1oPL3OJevYdZCgw48C+n+j0yeNsLU+Hdq3piR6P8TP2AW93TC0q4P1Ys/QKcJnTckD2JB4XKFzZLqem23zNu/n35GtzbM4+X05Oos0b19MTvfvJVtNgcTC3HRMZZBxndJSLFy/Sf/7zHzYLg9kXzITEx8ezyBrYYQNv/Z50jz06Anr17dq3o+joGFlAhrLJk6ZQ3Qfr0NNPPyNX8QH01ddfUWJCAvNAcgS1JcUcOIar7OHo0aMm+yx5Go8KFK9z+sIVnrONtZkY/K2Vny2m2nXrU1u5ClVTJy6KHHEIQrsUg+FpaWmsUwFRdujQgQ2ewzop1uiDDz6g8ePHs7SzQOTYyxSbbKGzNmbMmCLWDu9j9erVzMniH//4By+1DUQaFBTEevv2btplqafvKTwq0PNJ10wcF+whIydPbkOazsYsXTRXtpaVqVv3nlSWz5KoMZ/j1gLOC0eOHGFLF+BUgTFRDNYrQECYHlSDtTf//ve/ec45Tp06RR999JHRkcMaECq+MFjGIUOG8FLrYBgNf99e8CPBTnT27J7nDjwm0DMXr7B2pzNkyiJNTblKP27ZRC3atKP4GtaHRyJDy1GlCMM8N3ruy5YtY9OYsI5169alpk2bavaKC+S2cGp6JvnI7bn6Navw0kIGDx7MLJujKHP8GEl48cXCXv1XX33FIhFbGgoCmETAZ9ixYwerjps0aUKdO3fmZ4uCkQsMpVnzdDcHQRaeeOIJnvMsHhOos0t4L54/R5s2racqcbWoY5dHeal1Th4/RudO/MasIwbBMf5pa9ksxjwvpmBGyZBv27Toj8CRtp0CluHCSj377LPk7286Vgkw1YoxS2vTj4pIAaz+xo0b6a9//atxhgidK/h44keHxW3AvONkC2jAvKnhCTwi0MTL1yk7xzFP7o/mvc8GuAcOMjg/YCfvW5lF26M7ftwsdyrOU3SlyhQRFUn1GjSmsPAINmtTq0o4v8oymRg+ulp0sVnD2lUpJMi09481OPv37+c5y1y4cME4x4/47faA+XJMc6q9kNSoRaqAHefgPofQiMq5hg0bMjc3YGkISgv8gLAIztN4RKCOWM8fNn8n3/RkGjJ0WJFqGL6VV1Ov0KYNaykkOIzCIsKpcdOHKCa2aHUMrLVFMbSVcj2DjW9qUSbAnx5qYCouWwLFfVTm+J2pMpWO0WuvFXXdA1oiPXDgAPMnUIO/oex0bK9I0TfYu3cvm7HyJG4XKP62PT13zMKs+XIF9e7dn6rXqMlL5UZ8dg7t2PYDJV28QGGRFSmyQkVq1dbU3cwS5j6XCpgjT0y1vUTXvJpHUIJ9+/bxnCnqOf7iAIuIKtzSMJO5SLHVODyW1GArcLUo7a3u4QXv6X1A3S7Qa+l3KJ3HN5o+7U1Kv36d+vR7ih7p2Im97scL58nVciPmYIEZn88/W8raQhWjY6hW7Tpyg79wmYA173RLhAQGUJVKhvanubuaLVo3rmH003z77bdp6dKlzDJ+/PHHrOyzzz5jQ1Ro49qznMERME2JPerheWSOuUhjYmLYvVPAfvnmIxD2WtKnn36ajQF7CrcLNCH5OuXk5lLPxzvT2TOnWRncySZNmUYBZfzlHmxFOnniOEVGVaAQ+ZfeuUt3+eZqu5s5I1BQtWII3biTTZk52s7DllDaoeiEqDs46IljmAhz/HF86tMVYLoSbVmtsVe1SDEchTVIeI+YHsX7QnAFc+yxpKghSjJ8jaO4XaDnElPZMt4HzYZtYJnqObA6EmAYyJ2UkX9A/n6+lJCQwMSixpX3zBxMImB4rEaNGrzEgFabVAFDTYcPH3bKkmJZCJaHeAK3C/TipTQ2324u0Hi5nfnFmg08Zx+3My2vkHQFtR+IodDgQFq+fDn9/e9/56XEvN0xG+ROMNtz+vTpIisyLYkUnTlYUmdEivav0oxxN24X6PWbmZSWfovOnT1D48a8REmJSVSxUiX6cedefoX9OFvFO4t6CQXanvjSsToxKSnJoTHGkmTXrl3MS0m9FMSaJUVEEUwIOCpSW+56rkItUO1VWiVMWIhhLLFmrdq0cfMO+ua/39PqrzbQH0ePsnI9o4gTYVvg3Juens562Z4SJ8AwEJocb731Fi+R73FYmMVFd/DAx/iquYM2hpUwQWAJdAo9jVsE6m/2ZdaoWVvuZV6mDev146CghRI+EdYS458YBtMLaB+i46T2C7AmUqwogEjNgUjRAdQCHk6YAfMkbhEoCA81rUpmzXibJr/5Dh385QAvsU1evns7SE3qGRagwcrAasF3Uk9AkHBegXMznD2UMi2R4geGXr1WbCYMk1mypFOmTOEpz+A2gVaKCuEpA0OGGgaz9+zawR7tITPbsanS4lJO7sFj8N1etzVP0bVrV9Z5Uqpka5YU47ZwlNGq7rUsKdwLMczlKdwmULTlECRLofvjT7BocRP+/gZNet22f+XtrDy3DutUrhTBNk195513WB5eTHoGHSG0STFVibhM1iwprC0G47GiVY0lS9q+fXvWCfMEbhMoqF61kol3/PJli9nju++9zx4tkXf3HnNXcxcBAf70QOUo49Z/QNnBV+9ATBj+QtVszZJisRy8nsxFqtVxQufQXl/UksatAsUyDIhUoUWrNuwRN/Gfk7SdI0BGtvOL3RwFAbqay23PiRMnsiUeAF/a9OnTWdobeOyxx9hYKZxWbFX3imueGnxec4PgqYV1bhUoQLuuRlw0q+7VkeGmTZ9FH801taTZeXfdOu4ZGRZErRrH08iRLzL3NQV84fbMYesJeDLBiu7evZuFW7RW3aONbW5JEQ9KbUkxg+WIl35J4XaBAogTIo2V23lqGjduRnm5eWwdEjzos3McD5jgDLDs9WpVobrxscyzXGl3KqC95q107NiRefLjB2fJkmKWzB5LCtG6G7fMJFnDfBEatnHW2srEHHunGbEq0xFgNbzNWtoLPO4xlmvJEQSW9NChQ8ZIeArqGSd3hG90+0ySNcwjW0CclsbkXA18Ic3F6e75dleCDV8hPvMaQkGxpNY6Toh17048LlCsqzHHmf10igsG4WfPns1zhWADgtIEFtshHDdqLnOwlaGt6r5y5cpu3SnE4wLF8IX5IrR169bRU089xXPuAXGKtIaS3P0+3AGcXdAuhZeTej4fQKS2Ok7ujOfkcYECrf1zPvzwQ55yPVgsphU/HbtjPPnkkzxX+sByZwhUq8q3ZkkxgYEZNnegC4FqLWmAt/qAAYXx4F2FtZWMnp6Hdgdw25s6dSodO3aMrbtXsGVJse4K0aldjS4EamkV4eLFi9mKRVeBH4a1eeY5c+bwVOkGg/kIBoGQOeYudpY6Tlg6gpA9rsbjw0wKcLbVGqdDmBgsdTCnuMNMuOHmwyn3O4rT87lz51isfPVKUTgvI86qtSGokkJXw0wKsJZaQJzKPuUlia3IcT/88ANP3T8o06LYYhvLp9UdKHjWa1lSLINx5bCgbgSKX6cl4O9YkmCeHVWXNTAUcz+iiBRVPjpC6iofzSHzjhMCVKDjZMnpudigiucPHuXChQs8pc3w4cN5ykB6erpdhzk3b97kKcvI1Zx09epVnrs/wX1S7uG+ffuk0aNHG/PR0dFScnIyS6elpUk9evSQEhMTpStXrvBnF48lS5bwlCTpxoIifhEcGyyBgAklYdXsGXjHgL23uNe5CrUXFJpZGIpSqnzFkqK6x5IQDPrLWmKBI/BYkuhGoMDaIi105Io7q4OqHWtzbGFpW5r7DXNXPXw/WKyHAxH2Bg0axDzz4Tml+M4qiwxLCl0JVL3uXAsMpk+ePJnnHAPz7GoXOktgw1hHIhqXdsxFis4TAkLAmmL8GNviwHLCJdFWeEtn0JVAsauFrZ14ESvevCdpD1rz7FpMmDBBM4bn/YyWSBEZGs0uBHeASBGbaty4cfyKkkNXAgWoNqwBESPGuyOgN2pvmxJz8oKiqEWKdiaqcoxVYiYKezi1bNmSTU9jTVRJojuBmocR1AIeUPY6z2Iq05J7mRbKvuqCophbUoDNbhcuXMg6TZgWHTZsGIt4gpA7JQK68vzBq1i8eLF07do149CH1rF9+3Z+tX3YGuoSGMjMzGRHfn4+LzEgi5VpSTlkC8vPOIYuh5kcBU0B9WYE5mDKztqwlRauaEOVRtBrx2Ee/gd70avZunUrTzmPLgVq7zbRWJU4evRonjMFAVgdFZx51DiBY5h/FyUR716XAnVkanPUqFE8VQga6o4GWoDTdKtWrXhO4AxYPQoPMfTysXkE1ugXF10K1JEBeYzJIZKGAuaF4dvoKLi5guKDDim2kUTtVhLoUqAI44KQgfbyyiuvsI2wMJQEKwiPb0dB/EyB/tBtJ0lrUZclEDgLnSJ41GAaTm1R7UXZEEugL3Qr0FmzZvGU4zg6WOzJ6G0C6+hWoI50WNQL3uDdbalnbwlbvqECz6FbgToC2o+Yo+/evTvbwRjLEBwBi8YE+kTXArW3mn/44YdZpwrBF9CrdwS44CF+kUCf6Fqg2A7Q1WBIRKBfdC1QV8eER48few8J9IuuBYo4QNhhzVWIuXf9o/tO0syZM3mq5IGrmEDf6F6g9jqOOIN6jyGBPtG9QNFDdwXu3JRB4Dy6FyhwhZiwdESgf7xCoAgLXtLAIUWgf7xCoAcPHuSpkgGL7twRmU1QfLxCoNjvpyRZtmwZTwn0jlcINC4ujrZu/ZGSr6bT7ycu0v7fT/Mztjn05wU6c/EKZeXk8RIx9+5N6Fqgyanp9NOvJ2nLnsP0xpQ36djJBEq5doNu3s7kV9jmatpNOpeYQnt+Oc7+Do64mo7N1ws8h24FmpWdS8dOJVBmliGKyMBnXmCPxSUp4TydvpBM+w7bb4UFnkO3Av35kKmAmrVoRbt2bOE5ojNJ1yhdtqR5d4sOQcG7/uadLDqXnMZLClm60LDn5K079lthgefQrUAjIkz3lwffrf+ap4jSb2bSmYRrdPjkJTp4PJF++zOJHUjjOHXxKqWlF438++Iow/x7ubJl2aNA3+hWoL4+ROGhIVS2TKGQ2j6svdkCLGZ+QQE7kLbEz3t20gPVa1JoSDAFBYn49N6ArjtJfv5+FBwcSFGR4ewY/uIoKh8YyJZ4YE93X18/8vEx/QiITukrl/n7+cviDmDXh4YEsef/cfSgbJlD2XMF3oGuBWoOBBsYWJaCypdjVjAiPIQiZcEpAsYRKR8QYVhYsCzuIHY9loAU5OfTmHEi7qe34VUCBUsXObex/rhRwyjYBQFWBa7F6wR66FfnNvZq/3AXnhJ4E14n0Pfen89TjvHM0GE8JfAmvE6gYRGRtHObY5tsZWbYF+xWoD+8TqBg9UrbO3WomT9HeM57K14p0AmvF90d2RotWhc/DKDAM3ilQOvWb8hTtrl4/ix17d6D5wTehlcKFOTm5PKUdebMLFlfUoF78VqBrllln9Px2InObfwl0AdeK9B9e3/iKevUqFWbpwTeiNcK9L1ZH/GUZX53clBfoB+8VqARURXof7utb7awxMlpUYF+8FqBgrWrv+Apbaa9N4enBN6KVwt05Muv8FRR1q1ZSVGVonlO4K14tUAbNGlGyUkJPGfK7h3F3+VM4Hm8WqDg7ckTecqU2R+Jte+lAa8X6OM9tUPYBJQtw1MCb8brBdp/0BCeKmTR3Nk8JfB2vF6gWlw8f4anBN5OqRDogg9m8BRR2tUUmjFnIc8JvJ1SIdBTp07wFNEH/55GPr6lsmK4LykV3+TwkYVbckfHxPKUoDRQKgTatEVr2rzxWzpy6Bca+9oUXiooDZQKgd66kU5LFsyhd9/6h91+ogLvoFQI9NEOLSg5+RIlXLxIHVrVp5TLl/gZgbdT6noTkiTR559+zHMCb6fUCRS0e0Q7yJjA+ygVAn1t0lQKD4+gyKgomjr9fXq4Y1d+RuDtlAqBPjV4KG396TfasusgPdGrPy8VlAZ0K1AfHx/ydfEh0D+6FWhMhXC6J3d4XHkI9I+OBRpG9WrEUmhwOV5SctSKi6aWDeN5TqBndN0GDS5fjupWj6V68bFUNTqcQoOcE2sZf1+KlQVft3oMtWhQnSJCy/MzAr3jI8mgvYfxQ28AMehz8/IpRz7y8wuoQM7fvVtAkvzPR/7n5ysffn5UJsCfAgJ8qVzZMuTvVyr6gvcNn3zyCY0cOZKlve6b8/X1pcByZZgVrBgZwpoC1WIjKS42ij1Wjo6g6AqhFBFWnllgIU7vRnx7Al0jBCrQNUKgAl0jBCrQNUKgAl0jBCrQNUKgAt2Rn1+4gzUTKLYKFAj0QmpqKk9xgcbFxbGMQKAHTp48yVNcoGPHjmUZgUAPrF27lqf4XHx2djYFBor90wX6oGbNmnTu3DmWZhYU4pw0aRIrEAg8yZgxY2j//v08xy0oEkFBQZSZmckKBQJPERwcTBkZGTynGmZKTk6m9u3FloECz9GiRQtKSUnhOQNGgYaHh1O1atXo2LFjvEQgcC9NmjRhFlSNsYpXiImJKaJigcDVTJgwgWbPLhp42GhBFSDO5s2b85xA4HoaN25ML7zwAs+ZUkSgYMaMGUKkAreA5R3z5s2jRo0a8RIzUMVbomHDhtL8+fN5TiAoOT744ANJtpxSUlISL9FG04IqoMOEoSf0rrKysnipQOA8GEIaPnw4W6R55MgRqlq1Kj+jTZFOkha3bt2iwYMHU25uLhvQ79pVxD4SOMbWrVtp3bp1bDhz/Pjx1KVLF37GOnYJVA1EevjwYTYVhQ6VGNwXWAKTPxg2atq0KevTOOM157BABQKBQMAg+n86JF5CIGWEPwAAAABJRU5ErkJggg==;" vertex="1" parent="1">
          <mxGeometry x="20" y="808.97" width="88" height="97.95" as="geometry" />
        </mxCell>
        <mxCell id="MC7g_-9hAJX0nTkmb-Ls-46" style="edgeStyle=orthogonalEdgeStyle;rounded=0;orthogonalLoop=1;jettySize=auto;html=1;exitX=1;exitY=0.5;exitDx=0;exitDy=0;entryX=0;entryY=0.5;entryDx=0;entryDy=0;" edge="1" parent="1" source="MC7g_-9hAJX0nTkmb-Ls-4" target="MC7g_-9hAJX0nTkmb-Ls-43">
          <mxGeometry relative="1" as="geometry" />
        </mxCell>
        <mxCell id="MC7g_-9hAJX0nTkmb-Ls-4" value="&lt;font style=&quot;font-size: 14px;&quot;&gt;&lt;b&gt;joint decoder&lt;/b&gt;&lt;/font&gt;" style="rounded=0;whiteSpace=wrap;html=1;fillColor=#fff2cc;strokeColor=#d6b656;" vertex="1" parent="1">
          <mxGeometry x="230" y="838.97" width="120" height="37.94" as="geometry" />
        </mxCell>
        <mxCell id="MC7g_-9hAJX0nTkmb-Ls-40" style="edgeStyle=orthogonalEdgeStyle;rounded=0;orthogonalLoop=1;jettySize=auto;html=1;exitX=0.5;exitY=0;exitDx=0;exitDy=0;entryX=0;entryY=0.5;entryDx=0;entryDy=0;" edge="1" parent="1" source="MC7g_-9hAJX0nTkmb-Ls-7" target="MC7g_-9hAJX0nTkmb-Ls-4">
          <mxGeometry relative="1" as="geometry" />
        </mxCell>
        <mxCell id="MC7g_-9hAJX0nTkmb-Ls-7" value="" style="shape=trapezoid;perimeter=trapezoidPerimeter;whiteSpace=wrap;html=1;fixedSize=1;rotation=90;fillColor=#dae8fc;strokeColor=#6c8ebf;" vertex="1" parent="1">
          <mxGeometry x="131" y="823.46" width="71" height="68.97" as="geometry" />
        </mxCell>
        <mxCell id="MC7g_-9hAJX0nTkmb-Ls-6" value="&lt;b&gt;Graph Encoder&lt;/b&gt;" style="text;html=1;align=center;verticalAlign=middle;whiteSpace=wrap;rounded=0;" vertex="1" parent="1">
          <mxGeometry x="136.5" y="842.94" width="60" height="30" as="geometry" />
        </mxCell>
        <mxCell id="MC7g_-9hAJX0nTkmb-Ls-16" value="" style="rounded=0;whiteSpace=wrap;html=1;fillColor=none;" vertex="1" parent="1">
          <mxGeometry x="136.5" y="943.97" width="60" height="180" as="geometry" />
        </mxCell>
        <mxCell id="MC7g_-9hAJX0nTkmb-Ls-14" value="&lt;b&gt;joint&lt;/b&gt;" style="text;html=1;align=center;verticalAlign=middle;whiteSpace=wrap;rounded=0;" vertex="1" parent="1">
          <mxGeometry x="360" y="929" width="60" height="30" as="geometry" />
        </mxCell>
        <mxCell id="MC7g_-9hAJX0nTkmb-Ls-15" style="edgeStyle=orthogonalEdgeStyle;rounded=0;orthogonalLoop=1;jettySize=auto;html=1;exitX=0.5;exitY=1;exitDx=0;exitDy=0;" edge="1" parent="1" source="MC7g_-9hAJX0nTkmb-Ls-14" target="MC7g_-9hAJX0nTkmb-Ls-14">
          <mxGeometry relative="1" as="geometry" />
        </mxCell>
        <mxCell id="MC7g_-9hAJX0nTkmb-Ls-17" value="&lt;font style=&quot;font-size: 14px;&quot;&gt;&lt;b&gt;forward&lt;/b&gt;&lt;/font&gt;&lt;div&gt;&lt;span style=&quot;font-size: 14px;&quot;&gt;&lt;b&gt;kinematics&lt;/b&gt;&lt;/span&gt;&lt;/div&gt;" style="rounded=0;whiteSpace=wrap;html=1;fillColor=#fff2cc;strokeColor=#d6b656;" vertex="1" parent="1">
          <mxGeometry x="440" y="833.44" width="120" height="47.94" as="geometry" />
        </mxCell>
        <mxCell id="MC7g_-9hAJX0nTkmb-Ls-18" value="" style="rounded=0;whiteSpace=wrap;html=1;fillColor=#e1d5e7;strokeColor=#9673a6;" vertex="1" parent="1">
          <mxGeometry x="80" y="960.0000000000001" width="20" height="20" as="geometry" />
        </mxCell>
        <mxCell id="MC7g_-9hAJX0nTkmb-Ls-19" value="" style="rounded=0;whiteSpace=wrap;html=1;fillColor=#e1d5e7;strokeColor=#9673a6;" vertex="1" parent="1">
          <mxGeometry x="80" y="1053.97" width="20" height="20" as="geometry" />
        </mxCell>
        <mxCell id="MC7g_-9hAJX0nTkmb-Ls-20" value="" style="rounded=0;whiteSpace=wrap;html=1;fillColor=#e1d5e7;strokeColor=#9673a6;" vertex="1" parent="1">
          <mxGeometry x="80" y="990.0000000000001" width="20" height="20" as="geometry" />
        </mxCell>
        <mxCell id="MC7g_-9hAJX0nTkmb-Ls-21" value="" style="rounded=0;whiteSpace=wrap;html=1;fillColor=#e1d5e7;strokeColor=#9673a6;" vertex="1" parent="1">
          <mxGeometry x="80" y="1023.9700000000001" width="20" height="20" as="geometry" />
        </mxCell>
        <mxCell id="MC7g_-9hAJX0nTkmb-Ls-22" value="" style="rounded=0;whiteSpace=wrap;html=1;fillColor=#e1d5e7;strokeColor=#9673a6;" vertex="1" parent="1">
          <mxGeometry x="80" y="1087.95" width="20" height="20" as="geometry" />
        </mxCell>
        <mxCell id="MC7g_-9hAJX0nTkmb-Ls-23" value="" style="rounded=0;whiteSpace=wrap;html=1;fillColor=none;" vertex="1" parent="1">
          <mxGeometry x="60" y="950.0000000000001" width="60" height="180" as="geometry" />
        </mxCell>
        <mxCell id="MC7g_-9hAJX0nTkmb-Ls-24" value="末端位姿" style="text;html=1;align=center;verticalAlign=middle;whiteSpace=wrap;rounded=0;" vertex="1" parent="1">
          <mxGeometry x="60" y="1130" width="60" height="30" as="geometry" />
        </mxCell>
        <mxCell id="MC7g_-9hAJX0nTkmb-Ls-25" style="edgeStyle=orthogonalEdgeStyle;rounded=0;orthogonalLoop=1;jettySize=auto;html=1;exitX=0.5;exitY=1;exitDx=0;exitDy=0;" edge="1" parent="1" source="MC7g_-9hAJX0nTkmb-Ls-24" target="MC7g_-9hAJX0nTkmb-Ls-24">
          <mxGeometry relative="1" as="geometry" />
        </mxCell>
        <mxCell id="MC7g_-9hAJX0nTkmb-Ls-31" value="multi-view&amp;nbsp;&lt;div&gt;multi-modal observation encoder&lt;/div&gt;" style="rounded=0;whiteSpace=wrap;html=1;" vertex="1" parent="1">
          <mxGeometry x="290" y="333.97" width="120" height="60" as="geometry" />
        </mxCell>
        <mxCell id="MC7g_-9hAJX0nTkmb-Ls-32" value="&lt;b style=&quot;font-size: 14px;&quot;&gt;kinematics&lt;/b&gt;&lt;div&gt;&lt;b style=&quot;font-size: 14px;&quot;&gt;encoder&lt;/b&gt;&lt;/div&gt;" style="rounded=0;whiteSpace=wrap;html=1;fillColor=#fad9d5;strokeColor=#ae4132;" vertex="1" parent="1">
          <mxGeometry x="280" y="660" width="120" height="60" as="geometry" />
        </mxCell>
        <mxCell id="MC7g_-9hAJX0nTkmb-Ls-33" value="" style="rounded=0;whiteSpace=wrap;html=1;fillColor=#e1d5e7;strokeColor=#9673a6;" vertex="1" parent="1">
          <mxGeometry x="510" y="390" width="20" height="20" as="geometry" />
        </mxCell>
        <mxCell id="MC7g_-9hAJX0nTkmb-Ls-34" value="" style="rounded=0;whiteSpace=wrap;html=1;fillColor=#e1d5e7;strokeColor=#9673a6;" vertex="1" parent="1">
          <mxGeometry x="510" y="483.97" width="20" height="20" as="geometry" />
        </mxCell>
        <mxCell id="MC7g_-9hAJX0nTkmb-Ls-35" value="" style="rounded=0;whiteSpace=wrap;html=1;fillColor=#e1d5e7;strokeColor=#9673a6;" vertex="1" parent="1">
          <mxGeometry x="510" y="420" width="20" height="20" as="geometry" />
        </mxCell>
        <mxCell id="MC7g_-9hAJX0nTkmb-Ls-36" value="" style="rounded=0;whiteSpace=wrap;html=1;fillColor=#e1d5e7;strokeColor=#9673a6;" vertex="1" parent="1">
          <mxGeometry x="510" y="453.97" width="20" height="20" as="geometry" />
        </mxCell>
        <mxCell id="MC7g_-9hAJX0nTkmb-Ls-37" value="" style="rounded=0;whiteSpace=wrap;html=1;fillColor=#e1d5e7;strokeColor=#9673a6;" vertex="1" parent="1">
          <mxGeometry x="510" y="517.95" width="20" height="20" as="geometry" />
        </mxCell>
        <mxCell id="MC7g_-9hAJX0nTkmb-Ls-41" value="" style="rounded=0;whiteSpace=wrap;html=1;fillColor=#d5e8d4;strokeColor=#82b366;" vertex="1" parent="1">
          <mxGeometry x="380" y="787.94" width="20" height="19" as="geometry" />
        </mxCell>
        <mxCell id="MC7g_-9hAJX0nTkmb-Ls-42" value="" style="rounded=0;whiteSpace=wrap;html=1;fillColor=#d5e8d4;strokeColor=#82b366;" vertex="1" parent="1">
          <mxGeometry x="380" y="817.9100000000001" width="20" height="19" as="geometry" />
        </mxCell>
        <mxCell id="MC7g_-9hAJX0nTkmb-Ls-47" style="edgeStyle=orthogonalEdgeStyle;rounded=0;orthogonalLoop=1;jettySize=auto;html=1;exitX=1;exitY=0.5;exitDx=0;exitDy=0;" edge="1" parent="1" source="MC7g_-9hAJX0nTkmb-Ls-43" target="MC7g_-9hAJX0nTkmb-Ls-17">
          <mxGeometry relative="1" as="geometry">
            <mxPoint x="430" y="857" as="targetPoint" />
          </mxGeometry>
        </mxCell>
        <mxCell id="MC7g_-9hAJX0nTkmb-Ls-43" value="" style="rounded=0;whiteSpace=wrap;html=1;fillColor=#d5e8d4;strokeColor=#82b366;" vertex="1" parent="1">
          <mxGeometry x="380" y="847.9100000000001" width="20" height="19" as="geometry" />
        </mxCell>
        <mxCell id="MC7g_-9hAJX0nTkmb-Ls-44" value="" style="rounded=0;whiteSpace=wrap;html=1;fillColor=#d5e8d4;strokeColor=#82b366;" vertex="1" parent="1">
          <mxGeometry x="380" y="877.9100000000001" width="20" height="19" as="geometry" />
        </mxCell>
        <mxCell id="MC7g_-9hAJX0nTkmb-Ls-45" value="" style="rounded=0;whiteSpace=wrap;html=1;fillColor=#d5e8d4;strokeColor=#82b366;" vertex="1" parent="1">
          <mxGeometry x="380" y="908.94" width="20" height="19" as="geometry" />
        </mxCell>
        <mxCell id="MC7g_-9hAJX0nTkmb-Ls-48" value="" style="rounded=0;whiteSpace=wrap;html=1;fillColor=#e1d5e7;strokeColor=#9673a6;" vertex="1" parent="1">
          <mxGeometry x="580" y="787.4100000000001" width="20" height="19" as="geometry" />
        </mxCell>
        <mxCell id="MC7g_-9hAJX0nTkmb-Ls-49" value="" style="rounded=0;whiteSpace=wrap;html=1;fillColor=#e1d5e7;strokeColor=#9673a6;" vertex="1" parent="1">
          <mxGeometry x="580" y="817.3800000000001" width="20" height="19" as="geometry" />
        </mxCell>
        <mxCell id="MC7g_-9hAJX0nTkmb-Ls-55" style="edgeStyle=orthogonalEdgeStyle;rounded=0;orthogonalLoop=1;jettySize=auto;html=1;exitX=1;exitY=0.5;exitDx=0;exitDy=0;entryX=1;entryY=0.5;entryDx=0;entryDy=0;" edge="1" parent="1" source="MC7g_-9hAJX0nTkmb-Ls-50" target="MC7g_-9hAJX0nTkmb-Ls-32">
          <mxGeometry relative="1" as="geometry" />
        </mxCell>
        <mxCell id="MC7g_-9hAJX0nTkmb-Ls-50" value="" style="rounded=0;whiteSpace=wrap;html=1;fillColor=#e1d5e7;strokeColor=#9673a6;" vertex="1" parent="1">
          <mxGeometry x="580" y="847.3800000000001" width="20" height="19" as="geometry" />
        </mxCell>
        <mxCell id="MC7g_-9hAJX0nTkmb-Ls-51" value="" style="rounded=0;whiteSpace=wrap;html=1;fillColor=#e1d5e7;strokeColor=#9673a6;" vertex="1" parent="1">
          <mxGeometry x="580" y="877.3800000000001" width="20" height="19" as="geometry" />
        </mxCell>
        <mxCell id="MC7g_-9hAJX0nTkmb-Ls-52" value="" style="rounded=0;whiteSpace=wrap;html=1;fillColor=#e1d5e7;strokeColor=#9673a6;" vertex="1" parent="1">
          <mxGeometry x="580" y="908.4100000000001" width="20" height="19" as="geometry" />
        </mxCell>
        <mxCell id="MC7g_-9hAJX0nTkmb-Ls-53" value="&lt;b&gt;effector&lt;/b&gt;" style="text;html=1;align=center;verticalAlign=middle;whiteSpace=wrap;rounded=0;" vertex="1" parent="1">
          <mxGeometry x="560" y="932.43" width="60" height="30" as="geometry" />
        </mxCell>
        <mxCell id="MC7g_-9hAJX0nTkmb-Ls-56" value="" style="rounded=0;whiteSpace=wrap;html=1;fillColor=#e1d5e7;strokeColor=#9673a6;" vertex="1" parent="1">
          <mxGeometry x="80" y="473.9700000000001" width="20" height="19" as="geometry" />
        </mxCell>
        <mxCell id="MC7g_-9hAJX0nTkmb-Ls-57" value="" style="rounded=0;whiteSpace=wrap;html=1;fillColor=#e1d5e7;strokeColor=#9673a6;" vertex="1" parent="1">
          <mxGeometry x="80" y="503.9400000000001" width="20" height="19" as="geometry" />
        </mxCell>
        <mxCell id="MC7g_-9hAJX0nTkmb-Ls-58" value="" style="rounded=0;whiteSpace=wrap;html=1;fillColor=#e1d5e7;strokeColor=#9673a6;" vertex="1" parent="1">
          <mxGeometry x="80" y="533.94" width="20" height="19" as="geometry" />
        </mxCell>
        <mxCell id="MC7g_-9hAJX0nTkmb-Ls-59" value="" style="rounded=0;whiteSpace=wrap;html=1;fillColor=#e1d5e7;strokeColor=#9673a6;" vertex="1" parent="1">
          <mxGeometry x="80" y="563.94" width="20" height="19" as="geometry" />
        </mxCell>
        <mxCell id="MC7g_-9hAJX0nTkmb-Ls-60" value="" style="rounded=0;whiteSpace=wrap;html=1;fillColor=#e1d5e7;strokeColor=#9673a6;" vertex="1" parent="1">
          <mxGeometry x="80" y="594.97" width="20" height="19" as="geometry" />
        </mxCell>
        <mxCell id="MC7g_-9hAJX0nTkmb-Ls-61" value="&lt;b&gt;noise sequences&lt;/b&gt;" style="text;html=1;align=center;verticalAlign=middle;whiteSpace=wrap;rounded=0;" vertex="1" parent="1">
          <mxGeometry x="60" y="630" width="70" height="40" as="geometry" />
        </mxCell>
      </root>
    </mxGraphModel>
  </diagram>
</mxfile>
